<svg id="图层_1" data-name="图层 1" xmlns="http://www.w3.org/2000/svg" viewBox="0 0 319.72 142.21"><defs><style>.cls-1{fill:#5f0085;}.cls-2{fill:none;}</style></defs><title>STOmics logo</title><path class="cls-1" d="M15.05,69.89H5.2V5.4H35.07V69.58H24.9V64.81H15.05ZM24.9,30.18V15.25H15.05V30.18ZM15.05,40V55H24.9V40Zm21-7.31L44,27.32q1.27,1.91,5.08,7,5.4,7,8.58,11.44l-9.21,6A25.54,25.54,0,0,1,46.19,48Q39.2,36.86,36,32.72Zm1.27-9.53V13.34H59.53V.64h10.8V13.34h6.35v9.85H70.33V60.68q0,12.39-11.44,12.39-6,.31-14,.32a5.31,5.31,0,0,0-.32-1.59,54.47,54.47,0,0,0-2.22-8.9h5.08q4.45.32,6.67.32,5.4,0,5.4-5.72V23.19Z"/><path class="cls-1" d="M84,70.53v-8.9h31.13V48.29h-20V40.35q-4.45,2.23-6.67,3.49-2.86-5.4-5.4-9.21a113.31,113.31,0,0,0,26.69-15.25l7,7.31Q107.82,33,98,38.76h48v9.53h-20V61.63h31.13v8.9ZM113.22,1.27,124.66,0a38.9,38.9,0,0,0,1.59,5.08,20.84,20.84,0,0,0,.64,2.54h29.55V24.78H145.94V17.16H95.43v7.62H84.95V7.62h30.18Q114.17,4.77,113.22,1.27ZM124.34,27l5.72-7.94a286,286,0,0,1,28,14.3l-5.08,9.21A230.16,230.16,0,0,0,124.34,27Z"/><path class="cls-1" d="M166,70.53l-1.59-9.21q7.63-1,23.83-2.86a33.79,33.79,0,0,0,3.81-.64v1.91a13.32,13.32,0,0,0-.32,2.22h4.13V19.06q-8.58,14-16.2,24.46,4.44-.63,12.39-1.27h1a89.08,89.08,0,0,1-1,8.9q-19.38,1.91-22.87,3.18l-3.81-8.9q3.81-2.22,11.75-14-7.62.32-9.85,1.27l-3.18-8.9q4.13-2.54,14-24.15l9.53,3.81q-1,1.91-3.18,5.4-2.86,5.09-8.58,14.3,2.86,0,6.35-.32a60.52,60.52,0,0,0,5.08-8.9l8.58,4.13V3.49h38.76V62h4.77v9.21H190.42V67q-3.81.31-11.75,1.59Q170.4,69.89,166,70.53ZM224.1,22.87V13H206.31v9.85ZM206.31,32.4V42.57H224.1V32.4Zm0,19.38V62H224.1V51.78Z"/><path class="cls-1" d="M246.65,55.28V46.07h33V44.16l10.17-6.67H262.22V28.27h42.57v9.21l-13,8.58h28v9.21H290.5v7.94q0,9.84-10.48,10.17-7.31.31-13.66.32a51.73,51.73,0,0,0-2.54-9.53q5.72.32,10.48.32,5.4,0,5.4-4.45V55.28Zm7-49.88L261.59,0a136.47,136.47,0,0,1,9.53,11.44l-3.5,2.22h12.71q-1.27-2.22-3.81-6.35-1.59-2.54-2.22-3.81l9.21-4.13a45.29,45.29,0,0,1,2.86,4.77q2.86,4.45,4.45,7l-5.4,2.54h9.21q2.86-3.81,7.31-10.8A12.32,12.32,0,0,1,303.52.64l10.17,5.72q-1,1.27-2.86,3.49-2.23,2.55-3.18,3.81h10.8V32.4H308V22.87H258.41V32.4H247.92V13.66h12.39A87.88,87.88,0,0,0,253.64,5.4Z"/><path class="cls-1" d="M44.14,123.47q0,7.75-6.48,13.25a23.18,23.18,0,0,1-15.51,5.5A23.51,23.51,0,0,1,8.26,138,17.88,17.88,0,0,1,.68,127L0,123.89l10.39-4.77,1,4.94A7.06,7.06,0,0,0,14.91,129a13.16,13.16,0,0,0,7.16,1.88,12.84,12.84,0,0,0,7.54-2.17q3.11-2.17,3.11-5.24v-.34a5.62,5.62,0,0,0-3.92-5.37,26,26,0,0,0-6.48-1.71,33.24,33.24,0,0,1-8.86-2.47,20.43,20.43,0,0,1-8.26-6.43,14.67,14.67,0,0,1-3-8.9A16.52,16.52,0,0,1,8,85.43a20.48,20.48,0,0,1,14.19-5.16,22.68,22.68,0,0,1,13.21,4,17.4,17.4,0,0,1,7.41,10l.85,3.07-10.57,4.86-1-4.69a6.33,6.33,0,0,0-3.32-4.18,12.42,12.42,0,0,0-6.56-1.7,10.13,10.13,0,0,0-6.26,1.83,5.83,5.83,0,0,0-2.43,4.9q0,3.07,4.6,5.11a28.39,28.39,0,0,0,6.3,1.62,35.83,35.83,0,0,1,9.37,2.73q10.05,4.52,10.4,15.68"/><polygon class="cls-1" points="45.24 92.88 45.24 81.55 91.08 81.55 91.08 92.88 73.87 92.88 73.87 141.28 62.45 141.28 62.45 92.88 45.24 92.88"/><path class="cls-1" d="M122.52,80.36A30.26,30.26,0,0,1,138,84.49a30.88,30.88,0,0,1,11.29,11.25,30,30,0,0,1,4.18,15.46,31.07,31.07,0,1,1-30.93-30.84M136.24,125a19.45,19.45,0,0,0-13.76-33.19,19.42,19.42,0,0,0-19.38,19.43A18.91,18.91,0,0,0,108.76,125a19.29,19.29,0,0,0,27.48,0"/><path class="cls-1" d="M199.88,97.4h.68a12,12,0,0,1,5.2,1.36,12.63,12.63,0,0,1,4.35,3.24,19.55,19.55,0,0,1,2.56,5.11,17.72,17.72,0,0,1,1,5.54V141.1H202.61V112.56a4.85,4.85,0,0,0-1.53-2.9,4.46,4.46,0,0,0-2.9-1.45h-.34a4.25,4.25,0,0,0-3.24,1.36,4.31,4.31,0,0,0-1.53,3.15v28.46H181.91V112.73a4.62,4.62,0,0,0-1.36-3.24,4.52,4.52,0,0,0-3.32-1.36h-.17a4.53,4.53,0,0,0-3.24,1.45,4.25,4.25,0,0,0-1.36,3.24v28.37H161.29V98.67h11.08v2.73a15.3,15.3,0,0,1,4.26-2.73,14.87,14.87,0,0,1,4.94-1.19,12.48,12.48,0,0,1,4.26,1.11,11.44,11.44,0,0,1,3.58,2.47,17.93,17.93,0,0,1,4.77-2.73,20.93,20.93,0,0,1,5.71-.94"/><rect class="cls-1" x="221.95" y="98.59" width="10.91" height="42.6"/><path class="cls-1" d="M261.91,108.56h-.09a10.77,10.77,0,0,0-8,3.32,11.31,11.31,0,0,0,0,15.93,10.78,10.78,0,0,0,8,3.32,12.53,12.53,0,0,0,9.71-5.54l1.45-2.39,9,4.26,1,.43-2,3.32a22.6,22.6,0,0,1-8.35,7.75,21.82,21.82,0,0,1-10.91,3.24A22.41,22.41,0,0,1,246,104a21.59,21.59,0,0,1,15.85-6.56,22.05,22.05,0,0,1,10.91,3.2,22.31,22.31,0,0,1,8.35,7.71l2,3.41L273,116.48l-1.45-2.39a10.44,10.44,0,0,0-4.13-3.92,11.17,11.17,0,0,0-5.5-1.62"/><path class="cls-1" d="M317.72,128v.34a12.46,12.46,0,0,1-4.69,9.76,16.75,16.75,0,0,1-11.33,4A17.18,17.18,0,0,1,291.47,139a13.27,13.27,0,0,1-5.54-8.09l-.09-.34,8.61-4,.51,2.13a5,5,0,0,0,2.3,3.07,8.23,8.23,0,0,0,4.6,1.28,8.55,8.55,0,0,0,4.86-1.36,3.94,3.94,0,0,0,2-3.32v-.17a3.24,3.24,0,0,0-2.56-3.24,19.74,19.74,0,0,0-4.43-1.19,28.87,28.87,0,0,1-6.48-1.79,15.19,15.19,0,0,1-6-4.77,11,11,0,0,1-2.17-6.65,12.07,12.07,0,0,1,4.17-9.37,15.1,15.1,0,0,1,10.48-3.75,16.73,16.73,0,0,1,9.63,2.9,12.46,12.46,0,0,1,5.54,7.24l.17.6-8.35,3.75-.6-1.79a5,5,0,0,0-2-2.64,8.94,8.94,0,0,0-4.35-1,6.36,6.36,0,0,0-3.92,1.15,3.61,3.61,0,0,0-1.53,3q0,1.62,2.81,3a16.82,16.82,0,0,0,4.35,1.11,26.76,26.76,0,0,1,6.73,2,11.66,11.66,0,0,1,5.5,4.64,13.16,13.16,0,0,1,2,6.69"/><path class="cls-1" d="M234.05,89a6.48,6.48,0,1,1-6.48-6.48A6.48,6.48,0,0,1,234.05,89"/><rect class="cls-2" x="-248.69" y="-230.32" width="841.89" height="595.28"/></svg>